<svg style="max-height: 500px" xml:space="preserve" xmlns:xlink="http://www.w3.org/1999/xlink" xmlns="http://www.w3.org/2000/svg" version="1.1" viewBox="0 684 2012 636" width="2012" height="636">
    <g transform="matrix(16.07717,0,0,16.07717,-5820.423715,-15535.567201)">
        <path style="fill:rgb(38,47,62);fill-rule:nonzero;" d="M385.23,1012.987C385.23,1012.087 385.03,1011.937 384.18,1011.937L380.53,1011.937C379.68,1011.937 379.48,1012.087 379.48,1012.987L379.48,1028.837C379.48,1030.237 379.63,1033.737 379.63,1035.337L379.53,1035.337C378.93,1033.287 377.98,1030.737 376.58,1028.087L368.33,1012.587C368.03,1012.037 367.93,1011.937 367.18,1011.937L363.08,1011.937C362.23,1011.937 362.03,1012.087 362.03,1012.987L362.03,1045.137C362.03,1046.037 362.23,1046.187 363.08,1046.187L366.73,1046.187C367.58,1046.187 367.78,1046.037 367.78,1045.137L367.78,1027.137C367.78,1024.837 367.63,1022.287 367.63,1021.637L367.73,1021.637C368.23,1023.887 369.08,1025.637 370.58,1028.437L379.73,1045.487C380.03,1046.087 380.18,1046.187 380.88,1046.187L384.18,1046.187C385.08,1046.187 385.23,1046.037 385.23,1045.137L385.23,1012.987Z"/>
        <g transform="matrix(0.0622,0,0,0.0622,362.030355,966.31228)">
            <path style="fill:rgb(38,47,62);" d="M827.17,825.47L827.17,732.717C827.17,720.659 832.797,720.659 842.444,718.248L909.968,704.582C912.379,704.582 919.614,702.17 921.222,702.17C927.653,702.17 929.26,705.386 929.26,719.051L929.26,825.47L827.17,825.47ZM1016.881,825.47L1016.881,732.717C1016.881,720.659 1022.508,720.659 1032.154,718.248L1099.678,704.582C1102.09,704.582 1109.325,702.17 1110.932,702.17C1117.363,702.17 1118.971,705.386 1118.971,719.051L1118.971,825.47L1016.881,825.47ZM1118.971,869.514L1118.971,943.469L1016.881,943.469L1016.881,869.514L1118.971,869.514ZM1118.971,987.514L1118.971,1060.918L1016.881,1060.918L1016.881,987.514L1118.971,987.514ZM1118.971,1104.962L1118.971,1157.154C1118.971,1163.61 1118.971,1169.863 1119.327,1175.608L1017.199,1175.608C1016.881,1164.666 1016.881,1153.597 1016.881,1142.685L1016.881,1104.962L1118.971,1104.962ZM1182.055,1214.431C1182.055,1214.431 1196.945,1272.91 1196.945,1275.322C1196.945,1286.576 1154.341,1297.83 1115.756,1297.83C1049.197,1297.83 1027.443,1261.039 1020.333,1214.431L1182.055,1214.431ZM992.344,1214.431L1005.627,1268.891C1006.431,1272.91 1007.235,1272.91 1007.235,1275.322C1007.235,1286.576 964.63,1297.83 926.045,1297.83C859.487,1297.83 837.733,1261.039 830.623,1214.431L992.344,1214.431ZM768.546,1214.431C773.033,1252.803 780.547,1253.512 780.547,1266.479C780.547,1270.498 777.331,1273.714 771.704,1275.322L710.611,1295.418C705.788,1297.026 701.768,1297.83 698.553,1297.83C688.103,1297.83 681.672,1282.556 672.83,1250.402C651.125,1269.695 613.344,1297.83 549.839,1297.83C511.34,1297.83 460.651,1282.591 448.193,1214.431L768.546,1214.431ZM445.338,1175.608L445.338,1104.962L547.428,1104.962L547.428,1145.9C547.428,1155.618 547.834,1165.987 549.709,1175.608L445.338,1175.608ZM445.338,1060.918L445.338,987.514L547.428,987.514L547.428,1060.918L445.338,1060.918ZM445.338,943.469L445.338,903.939C445.338,892.685 450.965,891.881 460.611,889.469L528.135,875.804C530.547,875.804 538.585,873.392 540.997,873.392C545.82,873.392 547.428,876.608 547.428,890.273L547.428,943.469L445.338,943.469ZM663.183,943.469L663.183,903.939C663.183,892.685 668.81,891.881 678.457,889.469L745.981,875.804C748.392,875.804 756.431,873.392 759.646,873.392C763.666,873.392 765.273,876.608 765.273,890.273L765.273,943.469L663.183,943.469ZM827.17,943.469L827.17,869.514L929.26,869.514L929.26,943.469L827.17,943.469ZM929.26,987.514L929.26,1060.918L827.17,1060.918L827.17,987.514L929.26,987.514ZM929.26,1104.962L929.26,1157.154C929.26,1163.61 929.26,1169.863 929.616,1175.608L827.488,1175.608C827.17,1164.666 827.17,1153.597 827.17,1142.685L827.17,1104.962L929.26,1104.962ZM663.183,1175.608L663.183,1104.962L765.273,1104.962L765.273,1141.077C765.273,1154.094 765.475,1165.532 765.831,1175.608L663.183,1175.608ZM663.183,1060.918L663.183,987.514L765.273,987.514L765.273,1060.918L663.183,1060.918Z"/>
        </g>
        <path style="fill:rgb(38,47,62);fill-rule:nonzero;" d="M455.93,1039.587L458.73,1039.587C459.63,1039.587 459.78,1039.437 459.78,1038.587L459.78,1035.787C459.78,1034.637 459.63,1034.587 458.73,1034.587L455.93,1034.587L455.93,1026.587C455.93,1025.687 455.78,1025.537 454.93,1025.537L451.43,1025.537C450.58,1025.537 450.43,1025.737 450.38,1026.537L449.58,1034.587L441.93,1034.587L453.58,1014.787C453.73,1014.537 453.88,1014.337 453.88,1014.087C453.88,1013.687 453.53,1013.537 453.13,1013.387L450.13,1012.137C449.88,1012.037 449.68,1011.937 449.43,1011.937C449.18,1011.937 448.98,1012.237 448.78,1012.587L436.33,1033.337L436.33,1038.587C436.33,1039.437 436.48,1039.587 437.38,1039.587L449.58,1039.587L449.58,1046.037C449.58,1046.887 449.73,1047.037 450.58,1047.037L454.93,1047.037C455.78,1047.037 455.93,1046.887 455.93,1046.037L455.93,1039.587Z"/>
        <path style="fill:rgb(38,47,62);fill-rule:nonzero;" d="M486.43,1012.987C486.43,1012.087 486.23,1011.937 485.38,1011.937L480.73,1011.937C479.88,1011.937 479.68,1012.087 479.68,1012.987L479.68,1034.587C479.68,1038.187 479.43,1041.637 474.38,1041.637C469.33,1041.637 469.08,1038.187 469.08,1034.587L469.08,1012.987C469.08,1012.087 468.88,1011.937 468.03,1011.937L463.38,1011.937C462.53,1011.937 462.33,1012.087 462.33,1012.987L462.33,1034.587C462.33,1042.037 464.93,1047.037 474.38,1047.037C483.83,1047.037 486.43,1042.037 486.43,1034.587L486.43,1012.987Z"/>
    </g>
    <g transform="matrix(0.834663,0,0,1.078394,451.699509,-259.371183)">
        <path style="fill:rgb(38,47,62);" d="M1855,1444L1613,1444L1794.5,1270L1855,1270L1855,1444Z"/>
    </g>
</svg>